<?xml version="1.0" encoding="UTF-8" standalone="no"?>
<!-- Created with Inkscape (http://www.inkscape.org/) -->

<svg
   version="1.1"
   id="svg1"
   width="597.7066"
   height="420.14932"
   viewBox="0 0 597.7066 420.14932"
   sodipodi:docname="l4-caps-basic.svg"
   inkscape:version="1.3 (0e150ed6c4, 2023-07-21)"
   xmlns:inkscape="http://www.inkscape.org/namespaces/inkscape"
   xmlns:sodipodi="http://sodipodi.sourceforge.net/DTD/sodipodi-0.dtd"
   xmlns="http://www.w3.org/2000/svg"
   xmlns:svg="http://www.w3.org/2000/svg">
  <defs
     id="defs1" />
  <sodipodi:namedview
     id="namedview1"
     pagecolor="#ffffff"
     bordercolor="#666666"
     borderopacity="1.0"
     inkscape:showpageshadow="2"
     inkscape:pageopacity="0.0"
     inkscape:pagecheckerboard="0"
     inkscape:deskcolor="#d1d1d1"
     inkscape:zoom="1.8993247"
     inkscape:cx="298.7904"
     inkscape:cy="210.07466"
     inkscape:window-width="1920"
     inkscape:window-height="1011"
     inkscape:window-x="0"
     inkscape:window-y="32"
     inkscape:window-maximized="1"
     inkscape:current-layer="g1">
    <inkscape:page
       x="0"
       y="0"
       inkscape:label="1"
       id="page1"
       width="597.7066"
       height="420.14932"
       margin="0"
       bleed="0" />
  </sodipodi:namedview>
  <g
     id="g1"
     inkscape:groupmode="layer"
     inkscape:label="1">
    <path
       id="path1"
       d="m 23.395,237.316 h 319.453 c 1.769,0 3.195,1.422 3.195,3.192 v 21.246 c 0,1.769 -1.426,3.195 -3.195,3.195 H 23.395 c -1.766,0 -3.192,-1.426 -3.192,-3.195 v -21.246 c 0,-1.77 1.426,-3.192 3.192,-3.192 z"
       style="fill:#fff6d5;fill-opacity:1;fill-rule:nonzero;stroke:#000000;stroke-width:0.8;stroke-linecap:butt;stroke-linejoin:miter;stroke-miterlimit:4;stroke-dasharray:none;stroke-opacity:1"
       transform="scale(1.3333333)" />
    <path
       id="path2"
       d="m 35.965,59.214 h -1.238 v 8.019 l -2.586,-5.457 h -0.739 l -2.57,5.457 v -8.019 h -1.156 v 9.308 h 1.687 l 2.481,-5.183 2.402,5.183 h 1.719 v -9.308"
       style="fill:#000000;fill-opacity:1;fill-rule:nonzero;stroke:none"
       transform="matrix(1.3333333,0,0,-1.3333333,0,420.14933)" />
    <path
       id="path3"
       d="M 39.645,67.366 H 38.32 v 1.219 h 1.325 V 67.366 M 39.57,59.214 h -1.175 v 6.984 h 1.175 v -6.984"
       style="fill:#000000;fill-opacity:1;fill-rule:nonzero;stroke:none"
       transform="matrix(1.3333333,0,0,-1.3333333,0,420.14933)" />
    <path
       id="path4"
       d="m 47.02,59.651 c -0.391,-0.187 -0.766,-0.332 -1.118,-0.437 -0.351,-0.102 -0.722,-0.157 -1.121,-0.157 -0.504,0 -0.965,0.075 -1.386,0.219 -0.422,0.152 -0.782,0.375 -1.083,0.676 -0.304,0.301 -0.539,0.68 -0.703,1.137 -0.168,0.46 -0.25,0.996 -0.25,1.609 0,1.141 0.313,2.035 0.938,2.687 0.629,0.649 1.457,0.973 2.484,0.973 0.403,0 0.793,-0.055 1.176,-0.168 0.387,-0.113 0.742,-0.25 1.063,-0.414 v -1.305 h -0.063 c -0.359,0.278 -0.73,0.493 -1.113,0.645 -0.379,0.148 -0.75,0.223 -1.11,0.223 -0.668,0 -1.195,-0.223 -1.582,-0.672 -0.382,-0.45 -0.574,-1.106 -0.574,-1.969 0,-0.844 0.188,-1.492 0.563,-1.945 0.379,-0.45 0.91,-0.676 1.593,-0.676 0.235,0 0.477,0.031 0.723,0.094 0.246,0.062 0.469,0.144 0.664,0.246 0.168,0.086 0.332,0.175 0.481,0.273 0.148,0.102 0.269,0.184 0.355,0.258 h 0.063 v -1.297"
       style="fill:#000000;fill-opacity:1;fill-rule:nonzero;stroke:none"
       transform="matrix(1.3333333,0,0,-1.3333333,0,420.14933)" />
    <path
       id="path5"
       d="m 52.891,64.917 h -0.063 c -0.176,0.039 -0.348,0.07 -0.516,0.086 -0.16,0.019 -0.355,0.031 -0.578,0.031 -0.363,0 -0.714,-0.082 -1.05,-0.242 -0.34,-0.16 -0.664,-0.368 -0.977,-0.621 v -4.957 h -1.176 v 6.984 h 1.176 v -1.031 c 0.469,0.375 0.879,0.636 1.231,0.793 0.359,0.156 0.722,0.238 1.093,0.238 0.207,0 0.352,-0.008 0.446,-0.02 0.089,-0.007 0.23,-0.027 0.414,-0.058 v -1.203"
       style="fill:#000000;fill-opacity:1;fill-rule:nonzero;stroke:none"
       transform="matrix(1.3333333,0,0,-1.3333333,0,420.14933)" />
    <path
       id="path6"
       d="m 59.957,62.702 c 0,-1.137 -0.293,-2.035 -0.875,-2.692 -0.582,-0.66 -1.363,-0.988 -2.344,-0.988 -0.988,0 -1.773,0.328 -2.355,0.988 -0.578,0.657 -0.867,1.555 -0.867,2.692 0,1.137 0.289,2.035 0.867,2.695 0.582,0.66 1.367,0.992 2.355,0.992 0.981,0 1.762,-0.332 2.344,-0.992 0.582,-0.66 0.875,-1.558 0.875,-2.695 m -1.211,0 c 0,0.906 -0.18,1.574 -0.531,2.012 -0.356,0.441 -0.848,0.664 -1.477,0.664 -0.636,0 -1.133,-0.223 -1.488,-0.664 -0.348,-0.438 -0.523,-1.106 -0.523,-2.012 0,-0.875 0.175,-1.539 0.531,-1.992 0.355,-0.45 0.847,-0.676 1.48,-0.676 0.625,0 1.114,0.223 1.469,0.668 0.359,0.449 0.539,1.117 0.539,2"
       style="fill:#000000;fill-opacity:1;fill-rule:nonzero;stroke:none"
       transform="matrix(1.3333333,0,0,-1.3333333,0,420.14933)" />
    <path
       id="path7"
       d="M 68.121,59.214 H 66.57 l -2.8,3.058 -0.762,-0.726 v -2.332 h -1.176 v 9.726 h 1.176 v -6.238 l 3.394,3.496 h 1.481 l -3.242,-3.227 3.48,-3.757"
       style="fill:#000000;fill-opacity:1;fill-rule:nonzero;stroke:none"
       transform="matrix(1.3333333,0,0,-1.3333333,0,420.14933)" />
    <path
       id="path8"
       d="m 75.078,62.585 h -5.144 c 0,-0.43 0.062,-0.805 0.191,-1.125 0.129,-0.317 0.309,-0.578 0.531,-0.782 0.219,-0.199 0.473,-0.351 0.77,-0.449 0.301,-0.101 0.629,-0.152 0.988,-0.152 0.477,0 0.953,0.094 1.43,0.281 0.484,0.191 0.828,0.379 1.031,0.563 h 0.063 v -1.282 c -0.395,-0.168 -0.797,-0.304 -1.211,-0.418 -0.415,-0.113 -0.848,-0.168 -1.301,-0.168 -1.156,0 -2.063,0.313 -2.711,0.938 -0.653,0.629 -0.977,1.519 -0.977,2.676 0,1.14 0.313,2.047 0.934,2.718 0.625,0.668 1.445,1.004 2.461,1.004 0.941,0 1.668,-0.273 2.176,-0.824 0.511,-0.551 0.769,-1.332 0.769,-2.344 v -0.636 m -1.144,0.898 c -0.004,0.617 -0.161,1.094 -0.469,1.434 -0.305,0.336 -0.77,0.504 -1.395,0.504 -0.629,0 -1.132,-0.184 -1.508,-0.555 -0.371,-0.371 -0.578,-0.832 -0.628,-1.383 h 4"
       style="fill:#000000;fill-opacity:1;fill-rule:nonzero;stroke:none"
       transform="matrix(1.3333333,0,0,-1.3333333,0,420.14933)" />
    <path
       id="path9"
       d="m 81.215,64.917 h -0.063 c -0.175,0.039 -0.347,0.07 -0.511,0.086 -0.164,0.019 -0.36,0.031 -0.582,0.031 -0.364,0 -0.715,-0.082 -1.051,-0.242 -0.336,-0.16 -0.664,-0.368 -0.977,-0.621 v -4.957 h -1.172 v 6.984 h 1.172 v -1.031 c 0.469,0.375 0.879,0.636 1.235,0.793 0.355,0.156 0.722,0.238 1.093,0.238 0.203,0 0.352,-0.008 0.442,-0.02 0.094,-0.007 0.23,-0.027 0.414,-0.058 v -1.203"
       style="fill:#000000;fill-opacity:1;fill-rule:nonzero;stroke:none"
       transform="matrix(1.3333333,0,0,-1.3333333,0,420.14933)" />
    <path
       id="path10"
       d="m 88.172,59.214 h -1.176 v 3.976 c 0,0.32 -0.019,0.621 -0.058,0.899 -0.036,0.285 -0.106,0.503 -0.204,0.664 -0.105,0.175 -0.257,0.304 -0.453,0.386 -0.195,0.09 -0.449,0.133 -0.761,0.133 -0.321,0 -0.657,-0.082 -1.004,-0.238 -0.352,-0.16 -0.688,-0.36 -1.008,-0.606 v -5.214 h -1.176 v 6.984 h 1.176 v -0.777 c 0.367,0.304 0.746,0.543 1.137,0.714 0.39,0.168 0.793,0.254 1.207,0.254 0.753,0 1.328,-0.226 1.726,-0.679 0.395,-0.457 0.594,-1.11 0.594,-1.965 v -4.531"
       style="fill:#000000;fill-opacity:1;fill-rule:nonzero;stroke:none"
       transform="matrix(1.3333333,0,0,-1.3333333,0,420.14933)" />
    <path
       id="path11"
       d="m 96.277,62.585 h -5.144 c 0,-0.43 0.062,-0.805 0.195,-1.125 0.129,-0.317 0.305,-0.578 0.531,-0.782 0.215,-0.199 0.473,-0.351 0.766,-0.449 0.301,-0.101 0.629,-0.152 0.988,-0.152 0.477,0 0.953,0.094 1.434,0.281 0.48,0.191 0.824,0.379 1.031,0.563 h 0.063 v -1.282 c -0.399,-0.168 -0.801,-0.304 -1.215,-0.418 -0.41,-0.113 -0.844,-0.168 -1.301,-0.168 -1.156,0 -2.063,0.313 -2.711,0.938 -0.648,0.629 -0.976,1.519 -0.976,2.676 0,1.14 0.312,2.047 0.933,2.718 0.625,0.668 1.445,1.004 2.461,1.004 0.941,0 1.668,-0.273 2.176,-0.824 0.512,-0.551 0.769,-1.332 0.769,-2.344 v -0.636 m -1.144,0.898 c -0.004,0.617 -0.16,1.094 -0.469,1.434 -0.305,0.336 -0.769,0.504 -1.394,0.504 -0.629,0 -1.129,-0.184 -1.504,-0.555 -0.371,-0.371 -0.582,-0.832 -0.633,-1.383 h 4"
       style="fill:#000000;fill-opacity:1;fill-rule:nonzero;stroke:none"
       transform="matrix(1.3333333,0,0,-1.3333333,0,420.14933)" />
    <path
       id="path12"
       d="M 99.246,59.214 H 98.07 v 9.727 h 1.176 z"
       style="fill:#000000;fill-opacity:1;fill-rule:nonzero;stroke:none"
       transform="matrix(1.3333333,0,0,-1.3333333,0,420.14933)" />
    <path
       id="path13"
       d="m 20.133,229.758 c 342.476,0 326.789,0 326.789,0"
       style="fill:none;stroke:#000000;stroke-width:0.8;stroke-linecap:butt;stroke-linejoin:miter;stroke-miterlimit:4;stroke-dasharray:none;stroke-opacity:1"
       transform="scale(1.3333333)" />
    <path
       id="path14"
       d="m 356.973,75.695 h 16.679 c 0.36,0 0.653,0.289 0.653,0.649 v 15.051 c 0,0.359 -0.293,0.652 -0.653,0.652 h -16.679 c -0.36,0 -0.653,-0.293 -0.653,-0.652 V 76.344 c 0,-0.36 0.293,-0.649 0.653,-0.649 z"
       style="fill:#cfcdf8;fill-opacity:1;fill-rule:nonzero;stroke:#000000;stroke-width:0.988132;stroke-linecap:butt;stroke-linejoin:miter;stroke-miterlimit:4;stroke-dasharray:none;stroke-opacity:1"
       transform="scale(1.3333333)" />
    <path
       id="path15"
       d="m 379.484,234.663 h 5.918 v -0.797 h -2.484 v -6.203 h -0.949 v 6.203 h -2.485 v 0.797"
       style="fill:#000000;fill-opacity:1;fill-rule:nonzero;stroke:none"
       transform="matrix(1.3333333,0,0,-1.3333333,0,420.14933)" />
    <path
       id="path16"
       d="m 387.078,230.303 c -0.699,0 -1.18,-0.082 -1.449,-0.238 -0.27,-0.16 -0.402,-0.433 -0.402,-0.816 0,-0.309 0.097,-0.551 0.3,-0.731 0.203,-0.179 0.477,-0.269 0.825,-0.269 0.476,0 0.859,0.168 1.148,0.508 0.289,0.339 0.434,0.792 0.434,1.355 v 0.191 h -0.856 m 1.719,0.356 v -2.996 h -0.863 v 0.797 c -0.196,-0.317 -0.442,-0.555 -0.735,-0.707 -0.293,-0.149 -0.652,-0.227 -1.078,-0.227 -0.539,0 -0.965,0.152 -1.285,0.453 -0.316,0.301 -0.473,0.707 -0.473,1.211 0,0.594 0.196,1.039 0.59,1.336 0.399,0.301 0.988,0.453 1.774,0.453 h 1.207 v 0.082 c 0,0.399 -0.129,0.703 -0.391,0.918 -0.262,0.219 -0.625,0.328 -1.098,0.328 -0.3,0 -0.593,-0.035 -0.879,-0.105 -0.281,-0.074 -0.554,-0.18 -0.82,-0.324 v 0.796 c 0.316,0.122 0.625,0.211 0.922,0.274 0.297,0.062 0.586,0.094 0.867,0.094 0.758,0 1.324,-0.2 1.699,-0.594 0.375,-0.391 0.563,-0.988 0.563,-1.789"
       style="fill:#000000;fill-opacity:1;fill-rule:nonzero;stroke:none"
       transform="matrix(1.3333333,0,0,-1.3333333,0,420.14933)" />
    <path
       id="path17"
       d="m 393.926,232.76 v -0.816 c -0.242,0.125 -0.496,0.219 -0.758,0.281 -0.266,0.063 -0.535,0.094 -0.816,0.094 -0.43,0 -0.75,-0.066 -0.965,-0.199 -0.215,-0.129 -0.321,-0.328 -0.321,-0.59 0,-0.199 0.079,-0.356 0.231,-0.473 0.152,-0.113 0.461,-0.218 0.922,-0.324 l 0.297,-0.066 c 0.613,-0.129 1.046,-0.317 1.3,-0.555 0.262,-0.238 0.391,-0.57 0.391,-1 0,-0.488 -0.195,-0.875 -0.582,-1.156 -0.383,-0.285 -0.914,-0.43 -1.59,-0.43 -0.281,0 -0.574,0.031 -0.879,0.086 -0.304,0.055 -0.625,0.133 -0.961,0.242 v 0.891 c 0.317,-0.164 0.633,-0.289 0.942,-0.375 0.308,-0.078 0.617,-0.121 0.918,-0.121 0.406,0 0.718,0.07 0.937,0.207 0.219,0.14 0.328,0.336 0.328,0.59 0,0.234 -0.078,0.414 -0.238,0.539 -0.156,0.125 -0.5,0.246 -1.035,0.363 l -0.301,0.07 c -0.535,0.11 -0.922,0.281 -1.156,0.516 -0.238,0.234 -0.36,0.555 -0.36,0.961 0,0.492 0.176,0.875 0.528,1.14 0.347,0.27 0.847,0.407 1.488,0.407 0.32,0 0.621,-0.024 0.902,-0.071 0.282,-0.047 0.54,-0.117 0.778,-0.211"
       style="fill:#000000;fill-opacity:1;fill-rule:nonzero;stroke:none"
       transform="matrix(1.3333333,0,0,-1.3333333,0,420.14933)" />
    <path
       id="path18"
       d="m 395.551,234.956 h 0.867 v -4.305 l 2.574,2.262 h 1.102 l -2.785,-2.457 2.902,-2.793 h -1.125 l -2.668,2.566 v -2.566 h -0.867 v 7.293"
       style="fill:#000000;fill-opacity:1;fill-rule:nonzero;stroke:none"
       transform="matrix(1.3333333,0,0,-1.3333333,0,420.14933)" />
    <path
       id="path19"
       d="m 23.301,75.785 h 116.937 c 1.305,0 2.36,0.895 2.36,2 v 117.063 c 0,1.109 -1.055,2.004 -2.36,2.004 H 23.301 c -1.309,0 -2.36,-0.895 -2.36,-2.004 V 77.785 c 0,-1.105 1.051,-2 2.36,-2 z"
       style="fill:#cfcdf8;fill-opacity:1;fill-rule:nonzero;stroke:#000000;stroke-width:1.08452;stroke-linecap:butt;stroke-linejoin:miter;stroke-miterlimit:4;stroke-dasharray:none;stroke-opacity:1"
       transform="scale(1.3333333)" />
    <path
       id="path20"
       d="m 35.562,234.401 h -3.324 v -8.207 H 31 v 8.207 h -3.324 v 1.102 h 7.886 v -1.102"
       style="fill:#000000;fill-opacity:1;fill-rule:nonzero;stroke:none"
       transform="matrix(1.3333333,0,0,-1.3333333,0,420.14933)" />
    <path
       id="path21"
       d="m 40.656,226.194 h -1.168 v 0.746 c -0.105,-0.07 -0.246,-0.172 -0.426,-0.301 -0.171,-0.125 -0.343,-0.226 -0.511,-0.3 -0.196,-0.094 -0.422,-0.176 -0.676,-0.239 -0.254,-0.066 -0.551,-0.097 -0.891,-0.097 -0.632,0 -1.164,0.207 -1.601,0.625 -0.438,0.414 -0.656,0.945 -0.656,1.593 0,0.528 0.113,0.957 0.335,1.282 0.231,0.328 0.555,0.586 0.977,0.773 0.426,0.188 0.934,0.316 1.531,0.383 0.594,0.066 1.235,0.117 1.918,0.148 v 0.184 c 0,0.266 -0.047,0.484 -0.144,0.66 -0.09,0.176 -0.223,0.313 -0.399,0.414 -0.168,0.094 -0.367,0.16 -0.601,0.192 -0.231,0.035 -0.477,0.05 -0.731,0.05 -0.308,0 -0.652,-0.043 -1.031,-0.125 -0.379,-0.078 -0.77,-0.195 -1.176,-0.347 h -0.062 v 1.191 c 0.23,0.063 0.562,0.133 0.996,0.207 0.433,0.074 0.859,0.113 1.281,0.113 0.492,0 0.918,-0.043 1.281,-0.125 0.368,-0.082 0.684,-0.218 0.95,-0.414 0.261,-0.191 0.46,-0.437 0.601,-0.742 0.137,-0.305 0.203,-0.683 0.203,-1.133 v -4.738 m -1.168,1.719 v 1.945 c -0.359,-0.019 -0.781,-0.051 -1.269,-0.094 -0.481,-0.043 -0.867,-0.101 -1.149,-0.179 -0.336,-0.098 -0.609,-0.246 -0.82,-0.453 -0.207,-0.2 -0.312,-0.477 -0.312,-0.829 0,-0.402 0.121,-0.703 0.363,-0.906 0.242,-0.203 0.609,-0.301 1.105,-0.301 0.414,0 0.789,0.078 1.133,0.239 0.34,0.16 0.656,0.355 0.949,0.578"
       style="fill:#000000;fill-opacity:1;fill-rule:nonzero;stroke:none"
       transform="matrix(1.3333333,0,0,-1.3333333,0,420.14933)" />
    <path
       id="path22"
       d="m 47.922,228.21 c 0,-0.641 -0.266,-1.164 -0.797,-1.571 -0.523,-0.41 -1.242,-0.613 -2.156,-0.613 -0.516,0 -0.992,0.063 -1.422,0.184 -0.43,0.125 -0.793,0.257 -1.082,0.406 v 1.316 h 0.062 c 0.371,-0.277 0.782,-0.5 1.239,-0.668 0.453,-0.164 0.886,-0.242 1.304,-0.242 0.516,0 0.922,0.082 1.211,0.25 0.293,0.164 0.438,0.426 0.438,0.785 0,0.278 -0.078,0.485 -0.235,0.625 -0.16,0.141 -0.464,0.262 -0.914,0.364 -0.168,0.039 -0.386,0.082 -0.656,0.132 -0.266,0.047 -0.512,0.102 -0.73,0.161 -0.614,0.164 -1.051,0.402 -1.309,0.714 -0.254,0.317 -0.379,0.704 -0.379,1.161 0,0.289 0.059,0.558 0.176,0.812 0.117,0.254 0.301,0.481 0.543,0.684 0.23,0.195 0.527,0.347 0.887,0.461 0.363,0.117 0.765,0.175 1.21,0.175 0.418,0 0.84,-0.054 1.266,-0.156 0.426,-0.101 0.785,-0.223 1.067,-0.371 v -1.254 h -0.063 c -0.301,0.219 -0.664,0.406 -1.094,0.555 -0.429,0.156 -0.847,0.23 -1.261,0.23 -0.43,0 -0.793,-0.082 -1.086,-0.25 -0.297,-0.16 -0.446,-0.406 -0.446,-0.73 0,-0.285 0.09,-0.504 0.27,-0.649 0.176,-0.148 0.457,-0.265 0.847,-0.355 0.219,-0.051 0.461,-0.102 0.727,-0.152 0.27,-0.051 0.496,-0.094 0.676,-0.137 0.543,-0.125 0.965,-0.34 1.262,-0.645 0.296,-0.308 0.445,-0.715 0.445,-1.222"
       style="fill:#000000;fill-opacity:1;fill-rule:nonzero;stroke:none"
       transform="matrix(1.3333333,0,0,-1.3333333,0,420.14933)" />
    <path
       id="path23"
       d="m 55.945,226.194 h -1.55 l -2.801,3.059 -0.762,-0.727 v -2.332 h -1.176 v 9.727 h 1.176 v -6.239 l 3.395,3.496 h 1.48 l -3.242,-3.226 3.48,-3.758"
       style="fill:#000000;fill-opacity:1;fill-rule:nonzero;stroke:none"
       transform="matrix(1.3333333,0,0,-1.3333333,0,420.14933)" />
    <path
       id="path24"
       d="m 69.113,226.194 h -1.316 l -0.914,2.594 h -4.024 l -0.914,-2.594 h -1.257 l 3.39,9.309 h 1.649 l 3.386,-9.309 m -2.613,3.656 -1.629,4.571 -1.637,-4.571 H 66.5"
       style="fill:#000000;fill-opacity:1;fill-rule:nonzero;stroke:none"
       transform="matrix(1.3333333,0,0,-1.3333333,0,420.14933)" />
    <path
       id="path25"
       d="m 230.34,75.73 h 112.765 c 2,0 3.614,1.43 3.614,3.2 v 115.539 c 0,1.773 -1.614,3.199 -3.614,3.199 H 230.34 c -2.004,0 -3.613,-1.426 -3.613,-3.199 V 78.93 c 0,-1.77 1.609,-3.2 3.613,-3.2 z"
       style="fill:#cfcdf8;fill-opacity:1;fill-rule:nonzero;stroke:#000000;stroke-width:1.06282;stroke-linecap:butt;stroke-linejoin:miter;stroke-miterlimit:4;stroke-dasharray:none;stroke-opacity:1"
       transform="scale(1.3333333)" />
    <path
       id="path26"
       d="m 268.652,234.432 h -3.328 v -8.207 h -1.234 v 8.207 h -3.328 v 1.102 h 7.89 v -1.102"
       style="fill:#000000;fill-opacity:1;fill-rule:nonzero;stroke:none"
       transform="matrix(1.3333333,0,0,-1.3333333,0,420.14933)" />
    <path
       id="path27"
       d="m 273.746,226.225 h -1.172 v 0.746 c -0.101,-0.07 -0.246,-0.172 -0.422,-0.3 -0.175,-0.125 -0.347,-0.227 -0.515,-0.301 -0.196,-0.094 -0.418,-0.176 -0.672,-0.238 -0.258,-0.067 -0.555,-0.098 -0.895,-0.098 -0.629,0 -1.164,0.207 -1.601,0.625 -0.438,0.414 -0.657,0.945 -0.657,1.594 0,0.527 0.114,0.957 0.34,1.281 0.227,0.328 0.551,0.586 0.973,0.773 0.426,0.188 0.937,0.317 1.531,0.383 0.598,0.067 1.235,0.117 1.918,0.149 v 0.183 c 0,0.266 -0.047,0.485 -0.14,0.66 -0.094,0.176 -0.227,0.313 -0.403,0.414 -0.168,0.094 -0.367,0.161 -0.597,0.192 -0.235,0.035 -0.481,0.051 -0.735,0.051 -0.308,0 -0.652,-0.04 -1.031,-0.125 -0.379,-0.079 -0.77,-0.196 -1.172,-0.348 h -0.062 v 1.191 c 0.226,0.063 0.558,0.133 0.992,0.207 0.433,0.075 0.859,0.114 1.281,0.114 0.492,0 0.918,-0.043 1.281,-0.125 0.367,-0.079 0.684,-0.219 0.95,-0.414 0.261,-0.192 0.464,-0.438 0.601,-0.743 0.137,-0.304 0.207,-0.683 0.207,-1.132 v -4.739 m -1.172,1.719 v 1.945 c -0.355,-0.019 -0.781,-0.05 -1.265,-0.093 -0.485,-0.043 -0.868,-0.102 -1.153,-0.18 -0.336,-0.098 -0.609,-0.246 -0.816,-0.453 -0.211,-0.199 -0.313,-0.477 -0.313,-0.828 0,-0.403 0.118,-0.703 0.36,-0.907 0.242,-0.203 0.613,-0.3 1.109,-0.3 0.41,0 0.789,0.078 1.129,0.238 0.344,0.16 0.66,0.355 0.949,0.578"
       style="fill:#000000;fill-opacity:1;fill-rule:nonzero;stroke:none"
       transform="matrix(1.3333333,0,0,-1.3333333,0,420.14933)" />
    <path
       id="path28"
       d="m 281.008,228.241 c 0,-0.641 -0.266,-1.16 -0.793,-1.57 -0.527,-0.411 -1.246,-0.614 -2.156,-0.614 -0.52,0 -0.993,0.063 -1.426,0.184 -0.43,0.125 -0.789,0.258 -1.082,0.406 v 1.317 h 0.062 c 0.371,-0.278 0.782,-0.5 1.239,-0.668 0.453,-0.164 0.886,-0.243 1.304,-0.243 0.516,0 0.922,0.082 1.215,0.25 0.289,0.164 0.438,0.426 0.438,0.786 0,0.277 -0.082,0.484 -0.239,0.625 -0.16,0.14 -0.465,0.261 -0.914,0.363 -0.168,0.039 -0.386,0.082 -0.656,0.133 -0.266,0.047 -0.512,0.101 -0.73,0.16 -0.614,0.164 -1.047,0.402 -1.305,0.715 -0.258,0.316 -0.383,0.703 -0.383,1.16 0,0.289 0.059,0.558 0.176,0.812 0.121,0.254 0.301,0.481 0.543,0.684 0.234,0.195 0.527,0.348 0.887,0.461 0.363,0.117 0.765,0.176 1.214,0.176 0.414,0 0.836,-0.055 1.262,-0.157 0.43,-0.101 0.785,-0.222 1.066,-0.371 v -1.254 h -0.062 c -0.297,0.219 -0.664,0.407 -1.094,0.555 -0.429,0.156 -0.847,0.231 -1.262,0.231 -0.429,0 -0.792,-0.083 -1.085,-0.25 -0.297,-0.161 -0.446,-0.407 -0.446,-0.731 0,-0.285 0.09,-0.504 0.27,-0.648 0.176,-0.149 0.457,-0.266 0.851,-0.356 0.215,-0.051 0.457,-0.101 0.723,-0.152 0.27,-0.051 0.496,-0.094 0.676,-0.137 0.547,-0.125 0.965,-0.34 1.261,-0.644 0.297,-0.309 0.446,-0.715 0.446,-1.223"
       style="fill:#000000;fill-opacity:1;fill-rule:nonzero;stroke:none"
       transform="matrix(1.3333333,0,0,-1.3333333,0,420.14933)" />
    <path
       id="path29"
       d="m 289.031,226.225 h -1.551 l -2.796,3.059 -0.766,-0.727 v -2.332 h -1.172 v 9.727 h 1.172 v -6.238 l 3.394,3.496 h 1.481 l -3.242,-3.227 3.48,-3.758"
       style="fill:#000000;fill-opacity:1;fill-rule:nonzero;stroke:none"
       transform="matrix(1.3333333,0,0,-1.3333333,0,420.14933)" />
    <path
       id="path30"
       d="m 301.883,229.089 c 0,-0.461 -0.09,-0.872 -0.262,-1.223 -0.176,-0.356 -0.414,-0.649 -0.707,-0.875 -0.352,-0.277 -0.738,-0.473 -1.156,-0.59 -0.418,-0.117 -0.949,-0.176 -1.594,-0.176 h -3.301 v 9.309 h 2.758 c 0.676,0 1.188,-0.027 1.524,-0.074 0.335,-0.051 0.66,-0.157 0.968,-0.313 0.34,-0.18 0.59,-0.41 0.742,-0.695 0.157,-0.278 0.235,-0.613 0.235,-1.008 0,-0.441 -0.113,-0.816 -0.34,-1.129 -0.223,-0.308 -0.523,-0.558 -0.898,-0.746 v -0.047 c 0.628,-0.129 1.125,-0.406 1.488,-0.832 0.359,-0.422 0.543,-0.953 0.543,-1.601 m -2.082,4.195 c 0,0.223 -0.039,0.414 -0.113,0.566 -0.075,0.157 -0.196,0.282 -0.364,0.375 -0.195,0.114 -0.433,0.184 -0.711,0.207 -0.281,0.032 -0.625,0.043 -1.039,0.043 h -1.472 v -2.687 h 1.597 c 0.391,0 0.696,0.019 0.926,0.058 0.23,0.039 0.441,0.125 0.637,0.25 0.195,0.125 0.336,0.286 0.414,0.481 0.082,0.199 0.125,0.433 0.125,0.707 m 0.793,-4.246 c 0,0.375 -0.055,0.676 -0.168,0.894 -0.114,0.223 -0.317,0.41 -0.614,0.563 -0.199,0.105 -0.441,0.172 -0.73,0.199 -0.285,0.035 -0.629,0.051 -1.039,0.051 h -1.941 v -3.461 h 1.636 c 0.543,0 0.985,0.027 1.332,0.082 0.344,0.058 0.629,0.16 0.848,0.312 0.234,0.161 0.406,0.348 0.516,0.555 0.105,0.207 0.16,0.477 0.16,0.805"
       style="fill:#000000;fill-opacity:1;fill-rule:nonzero;stroke:none"
       transform="matrix(1.3333333,0,0,-1.3333333,0,420.14933)" />
    <path
       id="path31"
       d="m 355.574,72.327 h 17.778 V 56.971 h -17.778 z"
       style="fill:#ffcd7b;fill-opacity:1;fill-rule:nonzero;stroke:none"
       transform="matrix(1.3333333,0,0,-1.3333333,0,420.14933)" />
    <path
       id="path32"
       d="m 379.242,68.19 h 0.946 v -2.961 l 3.14,2.961 h 1.219 l -3.473,-3.266 3.723,-3.734 h -1.246 l -3.363,3.371 V 61.19 h -0.946 v 7"
       style="fill:#000000;fill-opacity:1;fill-rule:nonzero;stroke:none"
       transform="matrix(1.3333333,0,0,-1.3333333,0,420.14933)" />
    <path
       id="path33"
       d="m 389.527,64.03 v -0.422 h -3.965 c 0.036,-0.594 0.215,-1.047 0.532,-1.359 0.324,-0.309 0.769,-0.465 1.344,-0.465 0.328,0 0.648,0.043 0.96,0.125 0.313,0.078 0.622,0.203 0.926,0.363 v -0.816 c -0.308,-0.129 -0.625,-0.231 -0.949,-0.297 -0.328,-0.07 -0.656,-0.106 -0.992,-0.106 -0.836,0 -1.5,0.246 -1.992,0.731 -0.485,0.488 -0.731,1.148 -0.731,1.98 0,0.86 0.231,1.539 0.695,2.043 0.465,0.508 1.09,0.758 1.879,0.758 0.707,0 1.266,-0.226 1.672,-0.683 0.414,-0.454 0.621,-1.071 0.621,-1.852 m -0.863,0.254 c -0.008,0.473 -0.141,0.848 -0.398,1.129 -0.258,0.281 -0.598,0.422 -1.024,0.422 -0.48,0 -0.867,-0.137 -1.156,-0.407 -0.289,-0.273 -0.453,-0.656 -0.496,-1.148 l 3.074,0.004"
       style="fill:#000000;fill-opacity:1;fill-rule:nonzero;stroke:none"
       transform="matrix(1.3333333,0,0,-1.3333333,0,420.14933)" />
    <path
       id="path34"
       d="m 393.984,65.635 c -0.097,0.055 -0.203,0.094 -0.32,0.122 -0.109,0.027 -0.234,0.042 -0.375,0.042 -0.484,0 -0.859,-0.16 -1.125,-0.48 -0.258,-0.316 -0.387,-0.77 -0.387,-1.363 V 61.19 h -0.867 v 5.25 h 0.867 v -0.816 c 0.18,0.32 0.418,0.554 0.707,0.707 0.289,0.156 0.645,0.234 1.059,0.234 0.059,0 0.125,-0.004 0.199,-0.012 0.07,-0.007 0.149,-0.019 0.238,-0.035 l 0.004,-0.883"
       style="fill:#000000;fill-opacity:1;fill-rule:nonzero;stroke:none"
       transform="matrix(1.3333333,0,0,-1.3333333,0,420.14933)" />
    <path
       id="path35"
       d="M 399.094,64.358 V 61.19 h -0.864 v 3.141 c 0,0.496 -0.097,0.867 -0.289,1.117 -0.195,0.246 -0.484,0.367 -0.871,0.367 -0.468,0 -0.836,-0.148 -1.101,-0.445 -0.27,-0.297 -0.407,-0.699 -0.407,-1.211 V 61.19 h -0.867 v 5.25 h 0.867 v -0.816 c 0.208,0.316 0.45,0.55 0.727,0.707 0.281,0.156 0.606,0.234 0.973,0.234 0.601,0 1.058,-0.187 1.367,-0.562 0.309,-0.371 0.465,-0.918 0.465,-1.645"
       style="fill:#000000;fill-opacity:1;fill-rule:nonzero;stroke:none"
       transform="matrix(1.3333333,0,0,-1.3333333,0,420.14933)" />
    <path
       id="path36"
       d="m 405.312,64.03 v -0.422 h -3.964 c 0.039,-0.594 0.214,-1.047 0.535,-1.359 0.32,-0.309 0.769,-0.465 1.34,-0.465 0.332,0 0.652,0.043 0.961,0.125 0.312,0.078 0.621,0.203 0.929,0.363 v -0.816 c -0.308,-0.129 -0.629,-0.231 -0.953,-0.297 -0.324,-0.07 -0.652,-0.106 -0.988,-0.106 -0.836,0 -1.5,0.246 -1.992,0.731 -0.489,0.488 -0.731,1.148 -0.731,1.98 0,0.86 0.231,1.539 0.692,2.043 0.468,0.508 1.093,0.758 1.882,0.758 0.704,0 1.262,-0.226 1.672,-0.683 0.414,-0.454 0.617,-1.071 0.617,-1.852 m -0.859,0.254 c -0.008,0.473 -0.141,0.848 -0.398,1.129 -0.258,0.281 -0.598,0.422 -1.024,0.422 -0.48,0 -0.867,-0.137 -1.156,-0.407 -0.289,-0.273 -0.453,-0.656 -0.5,-1.148 l 3.078,0.004"
       style="fill:#000000;fill-opacity:1;fill-rule:nonzero;stroke:none"
       transform="matrix(1.3333333,0,0,-1.3333333,0,420.14933)" />
    <path
       id="path37"
       d="m 406.73,68.483 h 0.863 V 61.19 h -0.863 z"
       style="fill:#000000;fill-opacity:1;fill-rule:nonzero;stroke:none"
       transform="matrix(1.3333333,0,0,-1.3333333,0,420.14933)" />
    <path
       id="path38"
       d="m 415.328,67.546 c -0.687,0 -1.234,-0.254 -1.64,-0.77 -0.407,-0.512 -0.606,-1.211 -0.606,-2.094 0,-0.883 0.199,-1.578 0.606,-2.09 0.406,-0.511 0.953,-0.769 1.64,-0.769 0.688,0 1.231,0.258 1.629,0.769 0.402,0.512 0.605,1.207 0.605,2.09 0,0.883 -0.203,1.582 -0.605,2.094 -0.398,0.516 -0.941,0.77 -1.629,0.77 m 0,0.769 c 0.981,0 1.766,-0.328 2.352,-0.988 0.586,-0.656 0.882,-1.539 0.882,-2.645 0,-1.101 -0.296,-1.984 -0.882,-2.644 -0.586,-0.656 -1.371,-0.985 -2.352,-0.985 -0.984,0 -1.773,0.329 -2.363,0.985 -0.59,0.656 -0.883,1.539 -0.883,2.644 0,1.106 0.293,1.989 0.883,2.645 0.59,0.66 1.379,0.988 2.363,0.988"
       style="fill:#000000;fill-opacity:1;fill-rule:nonzero;stroke:none"
       transform="matrix(1.3333333,0,0,-1.3333333,0,420.14933)" />
    <path
       id="path39"
       d="m 423.773,63.811 c 0,0.633 -0.132,1.129 -0.394,1.488 -0.258,0.364 -0.617,0.547 -1.074,0.547 -0.453,0 -0.813,-0.183 -1.078,-0.547 -0.258,-0.359 -0.387,-0.855 -0.387,-1.488 0,-0.637 0.129,-1.133 0.387,-1.496 0.265,-0.359 0.625,-0.539 1.078,-0.539 0.457,0 0.816,0.18 1.074,0.539 0.262,0.363 0.394,0.859 0.394,1.496 m -2.933,1.832 c 0.18,0.313 0.41,0.543 0.683,0.696 0.278,0.152 0.61,0.226 0.993,0.226 0.64,0 1.156,-0.25 1.554,-0.758 0.399,-0.508 0.598,-1.172 0.598,-1.996 0,-0.824 -0.199,-1.492 -0.598,-1.996 -0.398,-0.508 -0.914,-0.762 -1.554,-0.762 -0.383,0 -0.715,0.075 -0.993,0.227 -0.273,0.152 -0.503,0.387 -0.683,0.699 V 61.19 h -0.867 v 7.293 h 0.867 v -2.84"
       style="fill:#000000;fill-opacity:1;fill-rule:nonzero;stroke:none"
       transform="matrix(1.3333333,0,0,-1.3333333,0,420.14933)" />
    <path
       id="path40"
       d="m 426.098,66.44 h 0.863 v -5.344 c 0,-0.668 -0.129,-1.152 -0.383,-1.453 -0.254,-0.301 -0.664,-0.449 -1.23,-0.449 h -0.328 v 0.73 h 0.23 c 0.328,0 0.551,0.079 0.672,0.231 0.117,0.148 0.176,0.465 0.176,0.941 v 5.344 m 0,2.043 h 0.863 v -1.09 h -0.863 v 1.09"
       style="fill:#000000;fill-opacity:1;fill-rule:nonzero;stroke:none"
       transform="matrix(1.3333333,0,0,-1.3333333,0,420.14933)" />
    <path
       id="path41"
       d="m 433.25,64.03 v -0.422 h -3.965 c 0.039,-0.594 0.215,-1.047 0.535,-1.359 0.321,-0.309 0.77,-0.465 1.34,-0.465 0.332,0 0.652,0.043 0.961,0.125 0.313,0.078 0.621,0.203 0.93,0.363 v -0.816 c -0.309,-0.129 -0.629,-0.231 -0.953,-0.297 -0.325,-0.07 -0.653,-0.106 -0.989,-0.106 -0.836,0 -1.5,0.246 -1.992,0.731 -0.488,0.488 -0.73,1.148 -0.73,1.98 0,0.86 0.23,1.539 0.691,2.043 0.469,0.508 1.094,0.758 1.883,0.758 0.703,0 1.262,-0.226 1.672,-0.683 0.414,-0.454 0.617,-1.071 0.617,-1.852 m -0.859,0.254 c -0.008,0.473 -0.141,0.848 -0.399,1.129 -0.258,0.281 -0.597,0.422 -1.023,0.422 -0.481,0 -0.867,-0.137 -1.157,-0.407 -0.289,-0.273 -0.453,-0.656 -0.5,-1.148 l 3.079,0.004"
       style="fill:#000000;fill-opacity:1;fill-rule:nonzero;stroke:none"
       transform="matrix(1.3333333,0,0,-1.3333333,0,420.14933)" />
    <path
       id="path42"
       d="m 438.445,66.237 v -0.805 c -0.242,0.133 -0.488,0.235 -0.734,0.301 -0.246,0.066 -0.492,0.102 -0.742,0.102 -0.559,0 -0.992,-0.176 -1.305,-0.536 -0.309,-0.351 -0.461,-0.847 -0.461,-1.488 0,-0.64 0.152,-1.14 0.461,-1.496 0.313,-0.351 0.746,-0.531 1.305,-0.531 0.25,0 0.496,0.035 0.742,0.101 0.246,0.067 0.492,0.168 0.734,0.305 v -0.797 c -0.242,-0.113 -0.492,-0.199 -0.75,-0.254 -0.257,-0.058 -0.531,-0.086 -0.82,-0.086 -0.789,0 -1.418,0.25 -1.883,0.746 -0.469,0.497 -0.699,1.168 -0.699,2.012 0,0.856 0.234,1.528 0.703,2.02 0.473,0.492 1.117,0.734 1.934,0.734 0.265,0 0.527,-0.027 0.781,-0.082 0.25,-0.055 0.496,-0.137 0.734,-0.246"
       style="fill:#000000;fill-opacity:1;fill-rule:nonzero;stroke:none"
       transform="matrix(1.3333333,0,0,-1.3333333,0,420.14933)" />
    <path
       id="path43"
       d="M 440.809,67.932 V 66.44 h 1.777 v -0.672 h -1.777 v -2.847 c 0,-0.43 0.058,-0.704 0.171,-0.825 0.122,-0.125 0.36,-0.183 0.719,-0.183 h 0.887 V 61.19 h -0.887 c -0.668,0 -1.125,0.125 -1.379,0.371 -0.254,0.25 -0.379,0.703 -0.379,1.36 v 2.847 h -0.632 v 0.672 h 0.632 v 1.492 h 0.868"
       style="fill:#000000;fill-opacity:1;fill-rule:nonzero;stroke:none"
       transform="matrix(1.3333333,0,0,-1.3333333,0,420.14933)" />
    <path
       id="path44"
       d="m 120.594,179.402 h 15.148 v 12.371 h -15.148 z"
       style="fill:none;stroke:#000000;stroke-width:0.72;stroke-linecap:butt;stroke-linejoin:miter;stroke-miterlimit:4;stroke-dasharray:none;stroke-opacity:1"
       transform="scale(1.3333333)" />
    <path
       id="path45"
       d="m 130.363,125.858 h -4.093 v 0.77 h 1.574 v 5.07 h -1.574 v 0.691 c 0.21,0 0.441,0.016 0.683,0.051 0.246,0.035 0.43,0.09 0.555,0.156 0.156,0.086 0.277,0.192 0.367,0.321 0.09,0.132 0.141,0.308 0.156,0.527 h 0.785 v -6.816 h 1.547 v -0.77"
       style="fill:#808080;fill-opacity:1;fill-rule:nonzero;stroke:none"
       transform="matrix(1.3333333,0,0,-1.3333333,0,420.14933)" />
    <path
       id="path46"
       d="m 120.594,167.008 h 15.148 v 12.375 h -15.148 z"
       style="fill:none;stroke:#000000;stroke-width:0.72;stroke-linecap:butt;stroke-linejoin:miter;stroke-miterlimit:4;stroke-dasharray:none;stroke-opacity:1"
       transform="scale(1.3333333)" />
    <path
       id="path47"
       d="m 130.793,138.249 h -5.117 v 1.062 c 0.355,0.305 0.711,0.61 1.066,0.914 0.36,0.305 0.692,0.61 1,0.91 0.649,0.629 1.094,1.129 1.336,1.497 0.238,0.375 0.36,0.773 0.36,1.203 0,0.394 -0.129,0.699 -0.391,0.922 -0.258,0.222 -0.617,0.332 -1.082,0.332 -0.309,0 -0.641,-0.051 -1,-0.161 -0.36,-0.109 -0.711,-0.273 -1.051,-0.5 h -0.051 v 1.067 c 0.239,0.121 0.559,0.226 0.961,0.328 0.403,0.098 0.789,0.144 1.168,0.144 0.774,0 1.383,-0.187 1.82,-0.562 0.442,-0.371 0.661,-0.879 0.661,-1.52 0,-0.285 -0.035,-0.554 -0.11,-0.804 -0.074,-0.25 -0.179,-0.485 -0.32,-0.707 -0.133,-0.211 -0.289,-0.418 -0.469,-0.621 -0.176,-0.204 -0.39,-0.426 -0.644,-0.676 -0.364,-0.356 -0.735,-0.699 -1.121,-1.035 -0.387,-0.332 -0.747,-0.641 -1.082,-0.922 h 4.066 v -0.871"
       style="fill:#000000;fill-opacity:1;fill-rule:nonzero;stroke:none"
       transform="matrix(1.3333333,0,0,-1.3333333,0,420.14933)" />
    <path
       id="path48"
       d="m 120.594,154.613 h 15.148 v 12.375 h -15.148 z"
       style="fill:none;stroke:#000000;stroke-width:0.72;stroke-linecap:butt;stroke-linejoin:miter;stroke-miterlimit:4;stroke-dasharray:none;stroke-opacity:1"
       transform="scale(1.3333333)" />
    <path
       id="path49"
       d="m 130.129,154.284 c 0.16,-0.145 0.297,-0.328 0.402,-0.547 0.102,-0.223 0.157,-0.508 0.157,-0.855 0,-0.344 -0.063,-0.661 -0.188,-0.95 -0.125,-0.289 -0.301,-0.539 -0.527,-0.75 -0.254,-0.238 -0.555,-0.414 -0.903,-0.531 -0.34,-0.109 -0.715,-0.164 -1.125,-0.164 -0.422,0 -0.832,0.051 -1.238,0.152 -0.406,0.098 -0.742,0.203 -1,0.325 v 1.058 h 0.074 c 0.289,-0.187 0.625,-0.344 1.016,-0.469 0.391,-0.125 0.765,-0.191 1.129,-0.191 0.211,0 0.437,0.039 0.679,0.109 0.239,0.071 0.434,0.176 0.583,0.313 0.156,0.152 0.273,0.316 0.347,0.492 0.078,0.18 0.117,0.406 0.117,0.684 0,0.269 -0.047,0.492 -0.132,0.668 -0.086,0.179 -0.204,0.32 -0.356,0.421 -0.152,0.106 -0.336,0.176 -0.555,0.215 -0.214,0.039 -0.449,0.059 -0.699,0.059 h -0.457 v 0.844 h 0.356 c 0.511,0 0.921,0.105 1.226,0.32 0.309,0.219 0.465,0.531 0.465,0.945 0,0.184 -0.039,0.34 -0.117,0.477 -0.078,0.14 -0.188,0.254 -0.324,0.34 -0.149,0.09 -0.305,0.148 -0.469,0.183 -0.168,0.035 -0.356,0.051 -0.563,0.051 -0.324,0 -0.664,-0.059 -1.027,-0.172 -0.363,-0.117 -0.703,-0.277 -1.027,-0.488 h -0.051 v 1.062 c 0.242,0.118 0.562,0.227 0.961,0.325 0.402,0.101 0.793,0.152 1.168,0.152 0.371,0 0.695,-0.035 0.976,-0.102 0.282,-0.066 0.535,-0.175 0.762,-0.324 0.242,-0.164 0.426,-0.359 0.551,-0.59 0.125,-0.23 0.191,-0.5 0.191,-0.808 0,-0.418 -0.152,-0.785 -0.449,-1.102 -0.293,-0.312 -0.644,-0.508 -1.047,-0.59 v -0.07 c 0.164,-0.027 0.352,-0.086 0.559,-0.172 0.211,-0.086 0.39,-0.191 0.535,-0.32"
       style="fill:#808080;fill-opacity:1;fill-rule:nonzero;stroke:none"
       transform="matrix(1.3333333,0,0,-1.3333333,0,420.14933)" />
    <path
       id="path50"
       d="m 120.594,142.188 h 15.148 v 12.371 h -15.148 z"
       style="fill:none;stroke:#000000;stroke-width:0.72;stroke-linecap:butt;stroke-linejoin:miter;stroke-miterlimit:4;stroke-dasharray:none;stroke-opacity:1"
       transform="scale(1.3333333)" />
    <path
       id="path51"
       d="m 130.965,165.198 h -1.121 v -2.125 h -0.977 v 2.125 h -3.617 v 1.168 l 3.66,4.266 h 0.934 v -4.622 h 1.121 v -0.812 m -2.098,0.812 v 3.414 l -2.929,-3.414 h 2.929"
       style="fill:#808080;fill-opacity:1;fill-rule:nonzero;stroke:none"
       transform="matrix(1.3333333,0,0,-1.3333333,0,420.14933)" />
    <path
       id="path52"
       d="m 120.594,129.793 h 15.148 v 12.375 h -15.148 z"
       style="fill:none;stroke:#000000;stroke-width:0.72;stroke-linecap:butt;stroke-linejoin:miter;stroke-miterlimit:4;stroke-dasharray:none;stroke-opacity:1"
       transform="scale(1.3333333)" />
    <path
       id="path53"
       d="m 130.734,177.866 c 0,-0.352 -0.066,-0.688 -0.195,-1.012 -0.129,-0.32 -0.305,-0.59 -0.527,-0.812 -0.242,-0.235 -0.535,-0.418 -0.875,-0.547 -0.332,-0.125 -0.723,-0.188 -1.168,-0.188 -0.41,0 -0.809,0.043 -1.192,0.133 -0.382,0.082 -0.707,0.188 -0.968,0.309 v 1.07 h 0.07 c 0.277,-0.176 0.601,-0.324 0.973,-0.449 0.375,-0.125 0.738,-0.184 1.097,-0.184 0.242,0 0.473,0.031 0.696,0.102 0.226,0.066 0.429,0.183 0.605,0.355 0.148,0.145 0.262,0.321 0.336,0.524 0.078,0.203 0.117,0.437 0.117,0.703 0,0.262 -0.047,0.48 -0.137,0.66 -0.089,0.18 -0.214,0.324 -0.371,0.434 -0.175,0.128 -0.39,0.218 -0.644,0.269 -0.254,0.055 -0.535,0.082 -0.844,0.082 -0.301,0 -0.586,-0.023 -0.863,-0.062 -0.274,-0.039 -0.512,-0.082 -0.711,-0.121 v 3.894 h 4.551 v -0.891 h -3.571 v -2.007 c 0.145,0.011 0.293,0.023 0.446,0.027 0.152,0.008 0.285,0.012 0.394,0.012 0.41,0 0.77,-0.035 1.078,-0.106 0.309,-0.07 0.59,-0.191 0.848,-0.367 0.269,-0.187 0.48,-0.426 0.629,-0.723 0.148,-0.293 0.226,-0.66 0.226,-1.105"
       style="fill:#808080;fill-opacity:1;fill-rule:nonzero;stroke:none"
       transform="matrix(1.3333333,0,0,-1.3333333,0,420.14933)" />
    <path
       id="path54"
       d="m 120.594,117.402 h 15.148 v 12.371 h -15.148 z"
       style="fill:none;stroke:#000000;stroke-width:0.72;stroke-linecap:butt;stroke-linejoin:miter;stroke-miterlimit:4;stroke-dasharray:none;stroke-opacity:1"
       transform="scale(1.3333333)" />
    <path
       id="path55"
       d="m 130.906,190.311 c 0,-0.769 -0.254,-1.398 -0.761,-1.887 -0.504,-0.484 -1.125,-0.726 -1.86,-0.726 -0.371,0 -0.711,0.059 -1.015,0.176 -0.305,0.113 -0.575,0.285 -0.809,0.511 -0.289,0.282 -0.516,0.653 -0.676,1.118 -0.156,0.464 -0.23,1.023 -0.23,1.675 0,0.672 0.07,1.266 0.211,1.782 0.144,0.519 0.375,0.98 0.691,1.382 0.297,0.383 0.684,0.68 1.152,0.895 0.469,0.215 1.02,0.324 1.645,0.324 0.199,0 0.367,-0.008 0.504,-0.027 0.137,-0.016 0.273,-0.047 0.41,-0.09 v -0.969 h -0.051 c -0.094,0.051 -0.238,0.098 -0.429,0.141 -0.192,0.047 -0.387,0.07 -0.586,0.07 -0.727,0 -1.309,-0.226 -1.743,-0.683 -0.433,-0.454 -0.683,-1.071 -0.754,-1.844 0.282,0.172 0.563,0.301 0.836,0.39 0.278,0.09 0.598,0.137 0.961,0.137 0.321,0 0.606,-0.031 0.848,-0.09 0.246,-0.058 0.5,-0.175 0.758,-0.355 0.297,-0.207 0.519,-0.469 0.668,-0.785 0.152,-0.313 0.23,-0.696 0.23,-1.145 m -1.031,-0.043 c 0,0.317 -0.047,0.578 -0.145,0.781 -0.089,0.208 -0.242,0.387 -0.457,0.54 -0.152,0.109 -0.328,0.179 -0.515,0.214 -0.192,0.036 -0.387,0.051 -0.594,0.051 -0.289,0 -0.555,-0.035 -0.805,-0.101 -0.246,-0.067 -0.5,-0.172 -0.761,-0.317 -0.004,-0.074 -0.012,-0.144 -0.016,-0.219 0,-0.066 -0.004,-0.152 -0.004,-0.257 0,-0.536 0.055,-0.957 0.164,-1.27 0.11,-0.308 0.262,-0.551 0.457,-0.73 0.156,-0.149 0.321,-0.258 0.5,-0.332 0.184,-0.067 0.383,-0.102 0.598,-0.102 0.488,0 0.875,0.148 1.156,0.449 0.281,0.301 0.422,0.731 0.422,1.293"
       style="fill:#808080;fill-opacity:1;fill-rule:nonzero;stroke:none"
       transform="matrix(1.3333333,0,0,-1.3333333,0,420.14933)" />
    <path
       id="path56"
       d="m 120.594,104.652 h 15.148 v 12.371 h -15.148 z"
       style="fill:none;stroke:#000000;stroke-width:0.72;stroke-linecap:butt;stroke-linejoin:miter;stroke-miterlimit:4;stroke-dasharray:none;stroke-opacity:1"
       transform="scale(1.3333333)" />
    <path
       id="path57"
       d="m 130.812,207.038 -3.421,-6.43 h -1.086 l 3.64,6.672 h -4.304 v 0.887 h 5.171 v -1.129"
       style="fill:#000000;fill-opacity:1;fill-rule:nonzero;stroke:none"
       transform="matrix(1.3333333,0,0,-1.3333333,0,420.14933)" />
    <path
       id="path58"
       d="m 120.594,92.258 h 15.148 v 12.375 h -15.148 z"
       style="fill:none;stroke:#000000;stroke-width:0.72;stroke-linecap:butt;stroke-linejoin:miter;stroke-miterlimit:4;stroke-dasharray:none;stroke-opacity:1"
       transform="scale(1.3333333)" />
    <path
       id="path59"
       d="m 130.848,215.108 c 0,-0.652 -0.254,-1.199 -0.766,-1.629 -0.508,-0.433 -1.148,-0.652 -1.918,-0.652 -0.82,0 -1.473,0.211 -1.961,0.637 -0.484,0.421 -0.726,0.964 -0.726,1.625 0,0.418 0.121,0.796 0.367,1.136 0.242,0.34 0.586,0.614 1.031,0.813 v 0.031 c -0.406,0.215 -0.711,0.453 -0.906,0.711 -0.192,0.254 -0.289,0.578 -0.289,0.965 0,0.566 0.234,1.043 0.699,1.422 0.469,0.379 1.062,0.566 1.785,0.566 0.754,0 1.356,-0.18 1.809,-0.543 0.449,-0.363 0.672,-0.82 0.672,-1.379 0,-0.344 -0.106,-0.679 -0.317,-1.012 -0.215,-0.328 -0.527,-0.585 -0.941,-0.773 v -0.031 c 0.472,-0.203 0.836,-0.453 1.086,-0.75 0.25,-0.297 0.375,-0.676 0.375,-1.137 m -1.203,3.691 c 0,0.364 -0.141,0.649 -0.422,0.864 -0.278,0.215 -0.633,0.324 -1.067,0.324 -0.426,0 -0.773,-0.102 -1.051,-0.305 -0.269,-0.203 -0.406,-0.476 -0.406,-0.82 0,-0.246 0.071,-0.457 0.203,-0.637 0.141,-0.176 0.348,-0.332 0.625,-0.472 0.125,-0.059 0.305,-0.141 0.539,-0.239 0.239,-0.097 0.469,-0.179 0.692,-0.242 0.336,0.223 0.566,0.453 0.695,0.695 0.129,0.239 0.192,0.516 0.192,0.832 m 0.16,-3.789 c 0,0.313 -0.071,0.563 -0.211,0.747 -0.133,0.191 -0.403,0.378 -0.801,0.57 -0.16,0.074 -0.332,0.144 -0.523,0.207 -0.192,0.066 -0.442,0.156 -0.758,0.269 -0.305,-0.164 -0.551,-0.39 -0.735,-0.675 -0.183,-0.286 -0.273,-0.606 -0.273,-0.965 0,-0.457 0.156,-0.836 0.473,-1.133 0.312,-0.297 0.711,-0.445 1.195,-0.445 0.496,0 0.89,0.125 1.183,0.379 0.297,0.253 0.45,0.605 0.45,1.046"
       style="fill:#808080;fill-opacity:1;fill-rule:nonzero;stroke:none"
       transform="matrix(1.3333333,0,0,-1.3333333,0,420.14933)" />
    <path
       id="path60"
       d="m 233.734,180.543 h 15.149 v 12.375 h -15.149 z"
       style="fill:none;stroke:#000000;stroke-width:0.72;stroke-linecap:butt;stroke-linejoin:miter;stroke-miterlimit:4;stroke-dasharray:none;stroke-opacity:1"
       transform="scale(1.3333333)" />
    <path
       id="path61"
       d="m 243.504,124.714 h -4.094 v 0.773 h 1.574 v 5.066 h -1.574 v 0.692 c 0.215,0 0.445,0.015 0.688,0.051 0.242,0.039 0.429,0.089 0.554,0.156 0.153,0.086 0.278,0.191 0.364,0.32 0.093,0.133 0.144,0.309 0.16,0.527 h 0.785 v -6.812 h 1.543 v -0.773"
       style="fill:#000000;fill-opacity:1;fill-rule:nonzero;stroke:none"
       transform="matrix(1.3333333,0,0,-1.3333333,0,420.14933)" />
    <path
       id="path62"
       d="m 233.734,168.152 h 15.149 v 12.371 h -15.149 z"
       style="fill:none;stroke:#000000;stroke-width:0.72;stroke-linecap:butt;stroke-linejoin:miter;stroke-miterlimit:4;stroke-dasharray:none;stroke-opacity:1"
       transform="scale(1.3333333)" />
    <path
       id="path63"
       d="m 243.938,137.108 h -5.122 v 1.059 c 0.356,0.304 0.711,0.609 1.067,0.914 0.359,0.304 0.695,0.609 1,0.91 0.652,0.629 1.097,1.129 1.336,1.5 0.242,0.371 0.363,0.773 0.363,1.203 0,0.391 -0.133,0.699 -0.391,0.918 -0.257,0.223 -0.621,0.336 -1.082,0.336 -0.308,0 -0.644,-0.055 -1,-0.164 -0.359,-0.106 -0.711,-0.274 -1.054,-0.496 h -0.051 v 1.066 c 0.242,0.117 0.562,0.227 0.961,0.324 0.402,0.098 0.793,0.149 1.168,0.149 0.777,0 1.383,-0.188 1.824,-0.567 0.438,-0.371 0.66,-0.875 0.66,-1.515 0,-0.289 -0.039,-0.559 -0.113,-0.809 -0.07,-0.246 -0.176,-0.48 -0.32,-0.707 -0.129,-0.207 -0.286,-0.414 -0.465,-0.617 -0.176,-0.203 -0.391,-0.43 -0.645,-0.676 -0.363,-0.355 -0.738,-0.703 -1.125,-1.035 -0.383,-0.332 -0.746,-0.641 -1.082,-0.926 h 4.071 v -0.867"
       style="fill:#000000;fill-opacity:1;fill-rule:nonzero;stroke:none"
       transform="matrix(1.3333333,0,0,-1.3333333,0,420.14933)" />
    <path
       id="path64"
       d="m 233.734,155.758 h 15.149 v 12.375 h -15.149 z"
       style="fill:none;stroke:#000000;stroke-width:0.72;stroke-linecap:butt;stroke-linejoin:miter;stroke-miterlimit:4;stroke-dasharray:none;stroke-opacity:1"
       transform="scale(1.3333333)" />
    <path
       id="path65"
       d="m 243.27,153.139 c 0.164,-0.144 0.296,-0.328 0.402,-0.547 0.105,-0.218 0.156,-0.503 0.156,-0.851 0,-0.348 -0.062,-0.664 -0.187,-0.949 -0.125,-0.289 -0.301,-0.539 -0.528,-0.754 -0.254,-0.239 -0.554,-0.414 -0.898,-0.528 -0.344,-0.113 -0.719,-0.168 -1.129,-0.168 -0.418,0 -0.832,0.051 -1.238,0.153 -0.407,0.097 -0.739,0.207 -1,0.324 v 1.063 h 0.078 c 0.285,-0.192 0.625,-0.348 1.015,-0.473 0.387,-0.125 0.762,-0.188 1.125,-0.188 0.215,0 0.442,0.036 0.68,0.106 0.242,0.07 0.438,0.176 0.586,0.316 0.156,0.149 0.27,0.313 0.344,0.492 0.078,0.18 0.117,0.407 0.117,0.68 0,0.27 -0.043,0.496 -0.133,0.672 -0.082,0.18 -0.203,0.32 -0.355,0.422 -0.153,0.101 -0.336,0.176 -0.551,0.211 -0.219,0.043 -0.453,0.062 -0.703,0.062 h -0.457 v 0.844 h 0.355 c 0.516,0 0.926,0.106 1.231,0.32 0.308,0.215 0.461,0.532 0.461,0.942 0,0.183 -0.039,0.344 -0.118,0.48 -0.078,0.137 -0.183,0.25 -0.324,0.34 -0.144,0.086 -0.301,0.149 -0.465,0.18 -0.168,0.035 -0.355,0.051 -0.566,0.051 -0.32,0 -0.664,-0.055 -1.023,-0.172 -0.364,-0.114 -0.707,-0.278 -1.028,-0.489 h -0.051 v 1.063 c 0.243,0.117 0.559,0.226 0.961,0.324 0.403,0.102 0.793,0.152 1.168,0.152 0.367,0 0.692,-0.031 0.973,-0.101 0.281,-0.067 0.535,-0.176 0.762,-0.324 0.246,-0.16 0.429,-0.36 0.554,-0.59 0.125,-0.231 0.188,-0.5 0.188,-0.805 0,-0.422 -0.149,-0.789 -0.445,-1.101 -0.297,-0.313 -0.645,-0.508 -1.047,-0.59 v -0.071 c 0.164,-0.027 0.347,-0.086 0.558,-0.175 0.211,-0.082 0.387,-0.192 0.532,-0.321"
       style="fill:#808080;fill-opacity:1;fill-rule:nonzero;stroke:none"
       transform="matrix(1.3333333,0,0,-1.3333333,0,420.14933)" />
    <path
       id="path66"
       d="m 233.734,143.328 h 15.149 v 12.375 h -15.149 z"
       style="fill:none;stroke:#000000;stroke-width:0.72;stroke-linecap:butt;stroke-linejoin:miter;stroke-miterlimit:4;stroke-dasharray:none;stroke-opacity:1"
       transform="scale(1.3333333)" />
    <path
       id="path67"
       d="m 244.109,164.057 h -1.121 v -2.129 h -0.976 v 2.129 h -3.621 v 1.168 l 3.66,4.266 h 0.937 v -4.621 h 1.121 v -0.813 m -2.097,0.813 v 3.41 l -2.93,-3.41 h 2.93"
       style="fill:#808080;fill-opacity:1;fill-rule:nonzero;stroke:none"
       transform="matrix(1.3333333,0,0,-1.3333333,0,420.14933)" />
    <path
       id="path68"
       d="m 233.734,130.938 h 15.149 v 12.371 h -15.149 z"
       style="fill:none;stroke:#000000;stroke-width:0.72;stroke-linecap:butt;stroke-linejoin:miter;stroke-miterlimit:4;stroke-dasharray:none;stroke-opacity:1"
       transform="scale(1.3333333)" />
    <path
       id="path69"
       d="m 243.875,176.725 c 0,-0.355 -0.063,-0.691 -0.191,-1.011 -0.129,-0.325 -0.305,-0.594 -0.528,-0.813 -0.246,-0.238 -0.535,-0.422 -0.875,-0.551 -0.336,-0.125 -0.726,-0.187 -1.168,-0.187 -0.414,0 -0.812,0.047 -1.195,0.133 -0.383,0.086 -0.703,0.187 -0.969,0.308 v 1.074 h 0.071 c 0.277,-0.175 0.605,-0.328 0.976,-0.453 0.371,-0.121 0.738,-0.183 1.098,-0.183 0.238,0 0.472,0.035 0.695,0.101 0.227,0.071 0.426,0.188 0.606,0.356 0.148,0.144 0.257,0.32 0.332,0.523 0.078,0.203 0.117,0.438 0.117,0.707 0,0.262 -0.043,0.481 -0.137,0.66 -0.086,0.18 -0.211,0.325 -0.371,0.43 -0.176,0.129 -0.391,0.219 -0.645,0.27 -0.25,0.054 -0.531,0.082 -0.843,0.082 -0.297,0 -0.586,-0.02 -0.864,-0.063 -0.273,-0.039 -0.511,-0.078 -0.711,-0.121 v 3.895 h 4.551 v -0.887 h -3.57 v -2.012 c 0.144,0.012 0.297,0.024 0.449,0.031 0.152,0.008 0.281,0.008 0.395,0.008 0.41,0 0.769,-0.035 1.078,-0.105 0.304,-0.067 0.59,-0.188 0.847,-0.364 0.27,-0.187 0.481,-0.429 0.629,-0.722 0.149,-0.293 0.223,-0.664 0.223,-1.106"
       style="fill:#000000;fill-opacity:1;fill-rule:nonzero;stroke:none"
       transform="matrix(1.3333333,0,0,-1.3333333,0,420.14933)" />
    <path
       id="path70"
       d="m 233.734,118.543 h 15.149 v 12.375 h -15.149 z"
       style="fill:none;stroke:#000000;stroke-width:0.72;stroke-linecap:butt;stroke-linejoin:miter;stroke-miterlimit:4;stroke-dasharray:none;stroke-opacity:1"
       transform="scale(1.3333333)" />
    <path
       id="path71"
       d="m 244.047,189.167 c 0,-0.77 -0.254,-1.395 -0.762,-1.883 -0.504,-0.485 -1.121,-0.727 -1.855,-0.727 -0.375,0 -0.711,0.059 -1.016,0.172 -0.305,0.117 -0.574,0.285 -0.809,0.512 -0.293,0.281 -0.515,0.656 -0.675,1.117 -0.157,0.465 -0.235,1.024 -0.235,1.676 0,0.672 0.071,1.265 0.215,1.785 0.145,0.516 0.375,0.977 0.692,1.379 0.296,0.383 0.679,0.68 1.152,0.894 0.469,0.219 1.016,0.325 1.644,0.325 0.2,0 0.368,-0.008 0.504,-0.024 0.133,-0.019 0.27,-0.047 0.41,-0.094 v -0.968 h -0.05 c -0.094,0.051 -0.239,0.097 -0.434,0.14 -0.187,0.051 -0.383,0.075 -0.582,0.075 -0.73,0 -1.308,-0.231 -1.742,-0.688 -0.434,-0.453 -0.688,-1.066 -0.758,-1.844 0.285,0.172 0.566,0.305 0.84,0.391 0.277,0.094 0.598,0.137 0.957,0.137 0.324,0 0.605,-0.028 0.852,-0.09 0.246,-0.059 0.496,-0.176 0.753,-0.356 0.297,-0.207 0.524,-0.468 0.672,-0.781 0.153,-0.316 0.227,-0.699 0.227,-1.148 m -1.031,-0.039 c 0,0.312 -0.047,0.574 -0.141,0.781 -0.09,0.207 -0.242,0.387 -0.457,0.539 -0.156,0.105 -0.328,0.18 -0.52,0.211 -0.187,0.035 -0.386,0.051 -0.593,0.051 -0.285,0 -0.555,-0.032 -0.801,-0.102 -0.246,-0.066 -0.5,-0.172 -0.762,-0.312 -0.008,-0.075 -0.012,-0.149 -0.015,-0.219 -0.004,-0.07 -0.004,-0.156 -0.004,-0.262 0,-0.531 0.054,-0.957 0.16,-1.269 0.113,-0.305 0.265,-0.551 0.457,-0.731 0.156,-0.148 0.324,-0.258 0.504,-0.328 0.183,-0.07 0.383,-0.102 0.594,-0.102 0.492,0 0.878,0.149 1.16,0.446 0.277,0.301 0.418,0.734 0.418,1.297"
       style="fill:#808080;fill-opacity:1;fill-rule:nonzero;stroke:none"
       transform="matrix(1.3333333,0,0,-1.3333333,0,420.14933)" />
    <path
       id="path72"
       d="m 233.734,105.793 h 15.149 v 12.375 h -15.149 z"
       style="fill:none;stroke:#000000;stroke-width:0.72;stroke-linecap:butt;stroke-linejoin:miter;stroke-miterlimit:4;stroke-dasharray:none;stroke-opacity:1"
       transform="scale(1.3333333)" />
    <path
       id="path73"
       d="m 243.957,205.893 -3.422,-6.429 h -1.086 l 3.641,6.671 h -4.309 v 0.891 h 5.176 v -1.133"
       style="fill:#000000;fill-opacity:1;fill-rule:nonzero;stroke:none"
       transform="matrix(1.3333333,0,0,-1.3333333,0,420.14933)" />
    <path
       id="path74"
       d="m 233.734,93.402 h 15.149 v 12.371 h -15.149 z"
       style="fill:none;stroke:#000000;stroke-width:0.72;stroke-linecap:butt;stroke-linejoin:miter;stroke-miterlimit:4;stroke-dasharray:none;stroke-opacity:1"
       transform="scale(1.3333333)" />
    <path
       id="path75"
       d="m 243.992,213.964 c 0,-0.653 -0.254,-1.196 -0.765,-1.629 -0.508,-0.434 -1.149,-0.649 -1.922,-0.649 -0.817,0 -1.473,0.211 -1.957,0.633 -0.485,0.422 -0.727,0.965 -0.727,1.625 0,0.422 0.121,0.801 0.363,1.137 0.246,0.343 0.59,0.613 1.032,0.812 v 0.031 c -0.407,0.219 -0.707,0.454 -0.903,0.711 -0.195,0.258 -0.289,0.579 -0.289,0.965 0,0.571 0.231,1.043 0.699,1.422 0.469,0.379 1.063,0.57 1.782,0.57 0.757,0 1.359,-0.183 1.808,-0.543 0.449,-0.363 0.676,-0.824 0.676,-1.382 0,-0.344 -0.105,-0.68 -0.32,-1.012 -0.211,-0.328 -0.528,-0.586 -0.938,-0.77 v -0.031 c 0.473,-0.203 0.836,-0.453 1.086,-0.754 0.25,-0.297 0.375,-0.676 0.375,-1.136 m -1.203,3.691 c 0,0.363 -0.141,0.652 -0.422,0.863 -0.277,0.219 -0.633,0.328 -1.066,0.328 -0.426,0 -0.778,-0.101 -1.051,-0.304 -0.27,-0.203 -0.406,-0.481 -0.406,-0.825 0,-0.242 0.066,-0.457 0.203,-0.636 0.137,-0.176 0.348,-0.332 0.625,-0.469 0.125,-0.063 0.305,-0.141 0.539,-0.242 0.234,-0.098 0.465,-0.176 0.687,-0.242 0.336,0.222 0.571,0.457 0.7,0.695 0.125,0.242 0.191,0.519 0.191,0.832 m 0.156,-3.785 c 0,0.308 -0.07,0.558 -0.207,0.746 -0.136,0.187 -0.402,0.379 -0.8,0.566 -0.161,0.075 -0.336,0.145 -0.524,0.211 -0.191,0.063 -0.441,0.153 -0.758,0.266 -0.304,-0.164 -0.551,-0.391 -0.738,-0.672 -0.18,-0.285 -0.273,-0.609 -0.273,-0.965 0,-0.457 0.16,-0.836 0.472,-1.133 0.317,-0.3 0.715,-0.449 1.199,-0.449 0.493,0 0.887,0.129 1.184,0.383 0.297,0.254 0.445,0.601 0.445,1.047"
       style="fill:#808080;fill-opacity:1;fill-rule:nonzero;stroke:none"
       transform="matrix(1.3333333,0,0,-1.3333333,0,420.14933)" />
    <path
       id="path76"
       d="m 117.984,71.659 h 17.782 V 56.303 h -17.782 z"
       style="fill:#ffcd7b;fill-opacity:1;fill-rule:nonzero;stroke:none"
       transform="matrix(1.3333333,0,0,-1.3333333,0,420.14933)" />
    <path
       id="path77"
       d="m 130.297,60.198 h -1.07 l -0.743,2.109 h -3.269 l -0.742,-2.109 h -1.02 l 2.75,7.562 h 1.344 l 2.75,-7.562 m -2.121,2.973 -1.324,3.711 -1.332,-3.711 h 2.656"
       style="fill:#000000;fill-opacity:1;fill-rule:nonzero;stroke:none"
       transform="matrix(1.3333333,0,0,-1.3333333,0,420.14933)" />
    <path
       id="path78"
       d="m 143.129,71.659 h 17.777 V 56.303 h -17.777 z"
       style="fill:#ffcd7b;fill-opacity:1;fill-rule:nonzero;stroke:none"
       transform="matrix(1.3333333,0,0,-1.3333333,0,420.14933)" />
    <path
       id="path79"
       d="m 155.184,62.526 c 0,-0.375 -0.075,-0.707 -0.215,-0.996 -0.141,-0.289 -0.332,-0.523 -0.574,-0.711 -0.286,-0.223 -0.598,-0.383 -0.938,-0.477 -0.34,-0.093 -0.773,-0.144 -1.297,-0.144 h -2.68 v 7.562 h 2.239 c 0.551,0 0.965,-0.019 1.238,-0.058 0.273,-0.043 0.535,-0.125 0.789,-0.254 0.277,-0.149 0.477,-0.336 0.602,-0.566 0.125,-0.227 0.187,-0.5 0.187,-0.817 0,-0.359 -0.09,-0.664 -0.273,-0.918 -0.184,-0.25 -0.426,-0.453 -0.731,-0.605 v -0.039 c 0.512,-0.106 0.914,-0.332 1.207,-0.676 0.297,-0.344 0.446,-0.778 0.446,-1.301 m -1.692,3.406 c 0,0.184 -0.031,0.336 -0.094,0.461 -0.058,0.129 -0.16,0.231 -0.293,0.305 -0.16,0.094 -0.351,0.148 -0.578,0.168 -0.226,0.023 -0.507,0.035 -0.843,0.035 h -1.2 v -2.184 h 1.301 c 0.313,0 0.567,0.016 0.75,0.047 0.188,0.035 0.36,0.102 0.52,0.203 0.16,0.102 0.269,0.235 0.336,0.391 0.066,0.164 0.101,0.356 0.101,0.574 m 0.645,-3.449 c 0,0.305 -0.047,0.547 -0.137,0.727 -0.094,0.179 -0.258,0.332 -0.5,0.457 -0.16,0.086 -0.359,0.14 -0.594,0.164 -0.23,0.027 -0.511,0.039 -0.844,0.039 h -1.578 v -2.813 h 1.332 c 0.438,0 0.801,0.024 1.082,0.067 0.278,0.047 0.508,0.133 0.688,0.254 0.191,0.132 0.328,0.281 0.418,0.453 0.086,0.168 0.133,0.386 0.133,0.652"
       style="fill:#000000;fill-opacity:1;fill-rule:nonzero;stroke:none"
       transform="matrix(1.3333333,0,0,-1.3333333,0,420.14933)" />
    <path
       id="path80"
       d="m 168.273,71.659 h 17.778 V 56.303 h -17.778 z"
       style="fill:#ffcd7b;fill-opacity:1;fill-rule:nonzero;stroke:none"
       transform="matrix(1.3333333,0,0,-1.3333333,0,420.14933)" />
    <path
       id="path81"
       d="m 180.461,60.749 c -0.184,-0.082 -0.356,-0.157 -0.508,-0.231 -0.148,-0.07 -0.344,-0.144 -0.59,-0.222 -0.203,-0.063 -0.429,-0.118 -0.675,-0.161 -0.239,-0.05 -0.504,-0.074 -0.797,-0.074 -0.547,0 -1.047,0.078 -1.496,0.231 -0.45,0.156 -0.836,0.398 -1.168,0.726 -0.325,0.321 -0.579,0.731 -0.762,1.223 -0.184,0.496 -0.274,1.074 -0.274,1.73 0,0.625 0.086,1.18 0.262,1.672 0.176,0.492 0.43,0.906 0.762,1.246 0.324,0.328 0.711,0.578 1.164,0.75 0.457,0.172 0.965,0.258 1.519,0.258 0.407,0 0.809,-0.047 1.211,-0.144 0.407,-0.102 0.86,-0.274 1.352,-0.52 v -1.195 h -0.074 c -0.418,0.351 -0.832,0.605 -1.242,0.761 -0.407,0.161 -0.848,0.243 -1.313,0.243 -0.383,0 -0.73,-0.063 -1.035,-0.192 -0.305,-0.121 -0.578,-0.312 -0.82,-0.57 -0.235,-0.254 -0.415,-0.578 -0.547,-0.965 -0.129,-0.387 -0.196,-0.836 -0.196,-1.344 0,-0.531 0.075,-0.988 0.215,-1.371 0.145,-0.383 0.332,-0.691 0.559,-0.933 0.238,-0.25 0.512,-0.438 0.828,-0.559 0.316,-0.117 0.652,-0.176 1.004,-0.176 0.484,0 0.937,0.082 1.363,0.246 0.422,0.168 0.82,0.418 1.188,0.746 h 0.07 v -1.175"
       style="fill:#000000;fill-opacity:1;fill-rule:nonzero;stroke:none"
       transform="matrix(1.3333333,0,0,-1.3333333,0,420.14933)" />
    <path
       id="path82"
       d="m 193.414,71.659 h 17.777 V 56.303 h -17.777 z"
       style="fill:#ffcd7b;fill-opacity:1;fill-rule:nonzero;stroke:none"
       transform="matrix(1.3333333,0,0,-1.3333333,0,420.14933)" />
    <path
       id="path83"
       d="m 206.152,63.971 c 0,-0.687 -0.148,-1.308 -0.453,-1.867 -0.297,-0.558 -0.695,-0.992 -1.191,-1.301 -0.344,-0.211 -0.731,-0.367 -1.156,-0.461 -0.426,-0.093 -0.985,-0.144 -1.676,-0.144 h -1.91 v 7.562 h 1.886 c 0.739,0 1.325,-0.054 1.758,-0.16 0.438,-0.105 0.805,-0.254 1.11,-0.437 0.511,-0.324 0.914,-0.75 1.203,-1.285 0.285,-0.536 0.429,-1.172 0.429,-1.907 m -1.05,0.016 c 0,0.594 -0.102,1.094 -0.309,1.5 -0.207,0.406 -0.516,0.727 -0.926,0.957 -0.297,0.172 -0.613,0.289 -0.949,0.352 -0.336,0.07 -0.734,0.101 -1.203,0.101 h -0.945 v -5.836 h 0.945 c 0.484,0 0.906,0.039 1.265,0.11 0.36,0.07 0.692,0.203 0.993,0.394 0.379,0.242 0.66,0.559 0.843,0.949 0.192,0.395 0.286,0.883 0.286,1.473"
       style="fill:#000000;fill-opacity:1;fill-rule:nonzero;stroke:none"
       transform="matrix(1.3333333,0,0,-1.3333333,0,420.14933)" />
    <path
       id="path84"
       d="m 218.559,71.659 h 17.777 V 56.303 h -17.777 z"
       style="fill:#ffcd7b;fill-opacity:1;fill-rule:nonzero;stroke:none"
       transform="matrix(1.3333333,0,0,-1.3333333,0,420.14933)" />
    <path
       id="path85"
       d="m 229.891,60.198 h -4.985 v 7.562 h 4.985 v -0.894 h -3.977 v -2.07 h 3.977 v -0.895 h -3.977 v -2.809 h 3.977 v -0.894"
       style="fill:#000000;fill-opacity:1;fill-rule:nonzero;stroke:none"
       transform="matrix(1.3333333,0,0,-1.3333333,0,420.14933)" />
    <path
       id="path86"
       d="M 243.699,71.659 H 261.48 V 56.303 h -17.781 z"
       style="fill:#ffcd7b;fill-opacity:1;fill-rule:nonzero;stroke:none"
       transform="matrix(1.3333333,0,0,-1.3333333,0,420.14933)" />
    <path
       id="path87"
       d="m 254.879,66.866 h -3.824 v -2.133 h 3.285 v -0.891 h -3.285 v -3.644 h -1.004 v 7.562 h 4.828 v -0.894"
       style="fill:#000000;fill-opacity:1;fill-rule:nonzero;stroke:none"
       transform="matrix(1.3333333,0,0,-1.3333333,0,420.14933)" />
    <path
       id="path88"
       d="m 268.844,71.659 h 17.777 V 56.303 h -17.777 z"
       style="fill:#ffcd7b;fill-opacity:1;fill-rule:nonzero;stroke:none"
       transform="matrix(1.3333333,0,0,-1.3333333,0,420.14933)" />
    <path
       id="path89"
       d="m 281.5,60.757 c -0.414,-0.188 -0.863,-0.356 -1.355,-0.497 -0.489,-0.136 -0.961,-0.207 -1.418,-0.207 -0.59,0 -1.129,0.082 -1.618,0.243 -0.492,0.164 -0.91,0.406 -1.257,0.73 -0.348,0.328 -0.618,0.738 -0.805,1.231 -0.192,0.496 -0.285,1.07 -0.285,1.73 0,1.211 0.351,2.164 1.054,2.859 0.707,0.703 1.68,1.051 2.911,1.051 0.429,0 0.871,-0.051 1.316,-0.156 0.449,-0.102 0.934,-0.277 1.453,-0.524 v -1.191 h -0.094 c -0.105,0.078 -0.257,0.188 -0.457,0.316 -0.199,0.133 -0.394,0.243 -0.586,0.332 -0.234,0.106 -0.5,0.192 -0.8,0.258 -0.293,0.071 -0.629,0.11 -1.004,0.11 -0.848,0 -1.516,-0.274 -2.012,-0.821 -0.488,-0.539 -0.734,-1.273 -0.734,-2.203 0,-0.976 0.257,-1.738 0.769,-2.285 0.516,-0.543 1.215,-0.812 2.106,-0.812 0.324,0 0.648,0.031 0.968,0.097 0.325,0.063 0.61,0.145 0.852,0.246 v 1.856 h -2.024 v 0.883 h 3.02 v -3.246"
       style="fill:#000000;fill-opacity:1;fill-rule:nonzero;stroke:none"
       transform="matrix(1.3333333,0,0,-1.3333333,0,420.14933)" />
    <path
       id="path90"
       d="m 293.984,71.659 h 17.782 V 56.303 h -17.782 z"
       style="fill:#ffcd7b;fill-opacity:1;fill-rule:nonzero;stroke:none"
       transform="matrix(1.3333333,0,0,-1.3333333,0,420.14933)" />
    <path
       id="path91"
       d="m 306.121,60.198 h -1.008 v 3.703 h -3.773 v -3.703 h -1.004 v 7.562 h 1.004 v -2.964 h 3.773 v 2.964 h 1.008 v -7.562"
       style="fill:#000000;fill-opacity:1;fill-rule:nonzero;stroke:none"
       transform="matrix(1.3333333,0,0,-1.3333333,0,420.14933)" />
    <path
       id="path92"
       d="m 319.129,71.659 h 17.777 V 56.303 h -17.777 z"
       style="fill:#ffcd7b;fill-opacity:1;fill-rule:nonzero;stroke:none"
       transform="matrix(1.3333333,0,0,-1.3333333,0,420.14933)" />
    <path
       id="path93"
       d="m 328.25,62.167 c 0,-0.664 -0.203,-1.176 -0.609,-1.535 -0.403,-0.36 -0.942,-0.54 -1.625,-0.54 -0.161,0 -0.379,0.016 -0.649,0.047 -0.269,0.028 -0.496,0.059 -0.679,0.102 v 0.937 h 0.054 c 0.141,-0.046 0.309,-0.093 0.512,-0.144 0.203,-0.051 0.414,-0.078 0.625,-0.078 0.312,0 0.559,0.035 0.742,0.105 0.188,0.074 0.324,0.176 0.41,0.305 0.094,0.137 0.153,0.305 0.176,0.5 0.027,0.195 0.039,0.422 0.039,0.68 v 4.414 h -1.598 v 0.8 h 2.602 v -5.593"
       style="fill:#000000;fill-opacity:1;fill-rule:nonzero;stroke:none"
       transform="matrix(1.3333333,0,0,-1.3333333,0,420.14933)" />
    <path
       id="path94"
       d="m -6.414,142.229 c 0,-0.664 -0.535,-1.199 -1.199,-1.199 -0.66,0 -1.199,0.535 -1.199,1.199 0,0.664 0.539,1.199 1.199,1.199 0.664,0 1.199,-0.535 1.199,-1.199 z"
       style="fill:#000000;fill-opacity:1;fill-rule:nonzero;stroke:none"
       transform="matrix(1.3333333,0,0,-1.3333333,0,420.14933)" />
    <path
       id="path95"
       d="m 135.766,172.074 c 10.468,11.438 16.238,10.922 16.16,71.114"
       style="fill:none;stroke:#000000;stroke-width:0.8;stroke-linecap:butt;stroke-linejoin:miter;stroke-miterlimit:4;stroke-dasharray:none;stroke-opacity:1"
       transform="scale(1.3333333)" />
    <path
       id="path96"
       d="m -239.793,152.237 1.599,-1.6 -5.599,1.601 5.599,1.598 z"
       style="fill:#000000;fill-opacity:1;fill-rule:evenodd;stroke:#000000;stroke-width:0.4;stroke-linecap:butt;stroke-linejoin:miter;stroke-miterlimit:4;stroke-dasharray:none;stroke-opacity:1"
       transform="matrix(0.00170632,-1.3333333,1.3333333,0.00170632,0,0)" />
    <path
       id="path97"
       d="m 233.555,174.094 c -16.551,10.136 -30.371,25.914 -30.926,69.109"
       style="fill:none;stroke:#000000;stroke-width:0.8;stroke-linecap:butt;stroke-linejoin:miter;stroke-miterlimit:4;stroke-dasharray:none;stroke-opacity:1"
       transform="scale(1.3333333)" />
    <path
       id="path98"
       d="m -237.36,205.723 1.601,-1.603 -5.601,1.599 5.599,1.6 z"
       style="fill:#000000;fill-opacity:1;fill-rule:evenodd;stroke:#000000;stroke-width:0.399967;stroke-linecap:butt;stroke-linejoin:miter;stroke-miterlimit:4;stroke-dasharray:none;stroke-opacity:1"
       transform="matrix(0.01713733,-1.3333333,1.3333333,0.01713733,0,0)" />
    <path
       id="path99"
       d="m 135.766,110.656 c 28.746,13.739 37.636,131.16 37.636,131.16 v 0"
       style="fill:none;stroke:#000000;stroke-width:0.8;stroke-linecap:butt;stroke-linejoin:miter;stroke-miterlimit:4;stroke-dasharray:none;stroke-opacity:1"
       transform="scale(1.3333333)" />
    <path
       id="path100"
       d="m -250.3,154.211 1.598,-1.594 -5.586,1.597 5.586,1.595 z"
       style="fill:#000000;fill-opacity:1;fill-rule:evenodd;stroke:#000000;stroke-width:0.398859;stroke-linecap:butt;stroke-linejoin:miter;stroke-miterlimit:4;stroke-dasharray:none;stroke-opacity:1"
       transform="matrix(-0.1009412,-1.3333333,1.3333333,-0.1009412,0,0)" />
    <path
       id="path101"
       d="m 233.555,137.324 c -51.578,14.047 -56.348,104.5 -56.348,104.5 0,0 0,0 0,0"
       style="fill:none;stroke:#000000;stroke-width:0.8;stroke-linecap:butt;stroke-linejoin:miter;stroke-miterlimit:4;stroke-dasharray:none;stroke-opacity:1"
       transform="scale(1.3333333)" />
    <path
       id="path102"
       d="m -228.641,189.431 1.596,-1.596 -5.592,1.595 5.592,1.6 z"
       style="fill:#000000;fill-opacity:1;fill-rule:evenodd;stroke:#000000;stroke-width:0.399445;stroke-linecap:butt;stroke-linejoin:miter;stroke-miterlimit:4;stroke-dasharray:none;stroke-opacity:1"
       transform="matrix(0.07030333,-1.3333333,1.3333333,0.07030333,0,0)" />
    <path
       id="path103"
       d="m 242.031,192.68 10.254,50.035"
       style="fill:none;stroke:#000000;stroke-width:0.8;stroke-linecap:butt;stroke-linejoin:miter;stroke-miterlimit:4;stroke-dasharray:none;stroke-opacity:1"
       transform="scale(1.3333333)" />
    <path
       id="path104"
       d="m -279.415,194.381 1.568,-1.569 -5.489,1.566 5.487,1.57 z"
       style="fill:#000000;fill-opacity:1;fill-rule:evenodd;stroke:#000000;stroke-width:0.391856;stroke-linecap:butt;stroke-linejoin:miter;stroke-miterlimit:4;stroke-dasharray:none;stroke-opacity:1"
       transform="matrix(-0.27325467,-1.3333333,1.3333333,-0.27325467,0,0)" />
    <path
       id="path105"
       d="m 248.496,112.676 c 38.266,15.82 71.285,65.886 78.578,130.832"
       style="fill:none;stroke:#000000;stroke-width:0.8;stroke-linecap:butt;stroke-linejoin:miter;stroke-miterlimit:4;stroke-dasharray:none;stroke-opacity:1"
       transform="scale(1.3333333)" />
    <path
       id="path106"
       d="m -273.568,295.998 1.593,-1.591 -5.565,1.59 5.563,1.59 z"
       style="fill:#000000;fill-opacity:1;fill-rule:evenodd;stroke:#000000;stroke-width:0.397501;stroke-linecap:butt;stroke-linejoin:miter;stroke-miterlimit:4;stroke-dasharray:none;stroke-opacity:1"
       transform="matrix(-0.14972933,-1.3333333,1.3333333,-0.14972933,0,0)" />
  </g>
</svg>
